# xmcd CD database file
#
# Track frame offsets:
#	150
#	17233
#	33785
#	53092
#	71490
#	87020
#	102673
#	115506
#	135110
#	148115
#	163774
#	183310
#	203119
#	221247
#	237545
#
# Disc length: 3426 seconds
#
# Revision: 1
# Processed by: cddbd v1.5.2PL0 Copyright (c) Steve Scherf et al.
# Submitted via: CDex 1.70beta2
#
DISCID=d00d600f
DTITLE=Edith Márquez - Todo... - Disco 2
DYEAR=2010
DGENRE=New Age
TTITLE0=Mi Error, Mi Fantasía
TTITLE1=El Primero, El Único, El Último
TTITLE2=Incondicional
TTITLE3=Cuando Grita La Piel
TTITLE4=Quién Te Cantará
TTITLE5=Enamorada
TTITLE6=Corazón Malherido
TTITLE7=Tengo Todo Excepto A Ti
TTITLE8=Sobre Tu Cruz
TTITLE9=Rómpeme, Mátame
TTITLE10=Sedúceme
TTITLE11=Dónde Va El Amor
TTITLE12=Ya Que Voy A Estar Sin Ti
TTITLE13=Se Te Acabó
TTITLE14=Quien Vive En Tu Piel
EXTD=YEAR: 2010
EXTT0=
EXTT1=
EXTT2=
EXTT3=
EXTT4=
EXTT5=
EXTT6=
EXTT7=
EXTT8=
EXTT9=
EXTT10=
EXTT11=
EXTT12=
EXTT13=
EXTT14=
PLAYORDER=
